<?xml version="1.0" encoding="UTF-8"?>
<svg width="721px" height="173px" viewBox="0 0 721 173" version="1.1" xmlns="http://www.w3.org/2000/svg" xmlns:xlink="http://www.w3.org/1999/xlink">
    <title>villeurbanne</title>
    <defs>
        <filter id="filter-1">
            <feColorMatrix in="SourceGraphic" type="matrix" values="0 0 0 0 1.000000 0 0 0 0 1.000000 0 0 0 0 1.000000 0 0 0 1.000000 0"></feColorMatrix>
        </filter>
    </defs>
    <g id="Page-1" stroke="none" stroke-width="1" fill="none" fill-rule="evenodd">
        <g filter="url(#filter-1)" id="villeurbanne">
            <g>
                <polygon id="path3348" fill="#00A895" fill-rule="nonzero" points="64.615 145.665 64.615 131.365 64.615 122.325 64.615 108.16 64.615 99.12 64.615 87.21375 76.8775 87.21375 76.8775 99.12 76.8775 108.16 76.8775 122.325 76.8775 131.365 76.8775 145.665"></polygon>
                <polygon id="path3350" fill="#00A895" fill-rule="nonzero" points="64.615 58.79625 76.8775 58.79625 76.8775 74.925 64.615 74.925"></polygon>
                <polygon id="path3352" fill="#00A895" fill-rule="nonzero" points="0.625 87.21375 0.625 99.12 0.625 108.16 0.625 122.325 23.8275 145.665 46.31 122.325 46.31 108.16 46.31 99.12 46.31 87.21375 34.76875 87.21375 34.76875 99.12 34.76875 116.2275 23.8275 127.37625 12.8875 116.2275 12.8875 99.12 12.8875 87.21375"></polygon>
                <path d="M674.93945,87.212891 L674.93945,99.119141 L674.93945,108.16016 L674.93945,122.32422 L674.93945,131.36523 L674.93945,140.81836 L679.78711,145.66406 L687.20312,145.66406 L709.08398,145.66406 L720.625,145.66406 L720.625,131.36523 L709.08398,131.36523 L687.20312,131.36523 L687.20312,122.32422 L709.08398,122.32422 L715.77734,122.32422 L720.625,117.47656 L720.625,108.16016 L720.625,99.119141 L720.625,92.060547 L715.77734,87.212891 L709.08398,87.212891 L687.20312,87.212891 L674.93945,87.212891 Z M687.20312,99.119141 L709.08398,99.119141 L709.08398,108.16016 L687.20312,108.16016 L687.20312,99.119141 Z" id="path3362" fill="#00A895" fill-rule="nonzero"></path>
                <polygon id="path3364" fill="#00A895" fill-rule="nonzero" points="651.7875 87.21375 656.635 92.06125 656.635 99.12 656.635 108.16 656.635 122.325 656.635 131.365 656.635 145.665 645.09375 145.665 645.09375 131.365 645.09375 122.325 645.09375 108.16 645.09375 99.12 623.21375 99.12 623.21375 108.16 623.21375 122.325 623.21375 131.365 623.21375 145.665 610.95 145.665 610.95 131.365 610.95 122.325 610.95 108.16 610.95 99.12 610.95 87.21375 623.21375 87.21375 645.09375 87.21375 651.7875 87.21375"></polygon>
                <polygon id="path3366" fill="#00A895" fill-rule="nonzero" points="587.7975 87.21375 592.645 92.06125 592.645 99.12 592.645 108.16 592.645 122.325 592.645 131.365 592.645 145.665 581.10375 145.665 581.10375 131.365 581.10375 122.325 581.10375 108.16 581.10375 99.12 559.22375 99.12 559.22375 108.16 559.22375 122.325 559.22375 131.365 559.22375 145.665 546.96 145.665 546.96 131.365 546.96 122.325 546.96 108.16 546.96 99.12 546.96 87.21375 559.22375 87.21375 581.10375 87.21375 587.7975 87.21375"></polygon>
                <path d="M482.9707,87.212891 L482.9707,99.119141 L495.23438,99.119141 L517.11328,99.119141 L517.11328,108.16016 L495.23438,108.16016 L487.81836,108.16016 L482.9707,113.00781 L482.9707,122.32422 L482.9707,131.36523 L482.9707,140.81836 L487.81836,145.66406 L495.23438,145.66406 L517.11328,145.66406 L528.6543,145.66406 L528.6543,131.36523 L528.6543,122.32422 L528.6543,108.16016 L528.6543,99.119141 L528.6543,92.060547 L523.80664,87.212891 L517.11328,87.212891 L495.23438,87.212891 L482.9707,87.212891 Z M495.23438,122.32422 L517.11328,122.32422 L517.11328,131.36523 L495.23438,131.36523 L495.23438,122.32422 Z" id="path3368" fill="#00A895" fill-rule="nonzero"></path>
                <path d="M418.98047,63.078125 L418.98047,87.212891 L418.98047,99.119141 L418.98047,108.16016 L418.98047,122.32422 L418.98047,131.36523 L418.98047,145.66406 L431.24414,145.66406 L453.12305,145.66406 L459.81836,145.66406 L464.66602,140.81836 L464.66602,131.36523 L464.66602,122.32422 L464.66602,108.16016 L464.66602,99.119141 L464.66602,92.060547 L459.81836,87.212891 L453.12305,87.212891 L431.24414,87.212891 L431.24414,63.078125 L418.98047,63.078125 Z M431.24414,99.119141 L453.12305,99.119141 L453.12305,108.16016 L453.12305,122.32422 L453.12305,131.36523 L431.24414,131.36523 L431.24414,122.32422 L431.24414,108.16016 L431.24414,99.119141 Z" id="path3370" fill="#00A895" fill-rule="nonzero"></path>
                <polygon id="path3372" fill="#00A895" fill-rule="nonzero" points="395.8275 87.21375 400.67625 92.06125 400.67625 99.12 400.67625 108.16 389.135 108.16 389.135 99.12 367.25375 99.12 367.25375 108.16 367.25375 122.325 367.25375 131.365 367.25375 145.665 354.99125 145.665 354.99125 131.365 354.99125 122.325 354.99125 108.16 354.99125 99.12 354.99125 87.21375 367.25375 87.21375 389.135 87.21375"></polygon>
                <polygon id="path3374" fill="#00A895" fill-rule="nonzero" points="336.68625 140.8175 331.83875 145.665 325.145 145.665 303.26375 145.665 295.84875 145.665 291.00125 140.8175 291.00125 131.365 291.00125 122.325 291.00125 108.16 291.00125 99.12 291.00125 87.21375 303.26375 87.21375 303.26375 99.12 303.26375 108.16 303.26375 122.325 303.26375 131.365 325.145 131.365 325.145 122.325 325.145 108.16 325.145 99.12 325.145 87.21375 336.68625 87.21375 336.68625 99.12 336.68625 108.16 336.68625 122.325 336.68625 131.365"></polygon>
                <path d="M231.85938,87.212891 L227.01172,92.060547 L227.01172,99.119141 L227.01172,108.16016 L227.01172,122.32422 L227.01172,131.36523 L227.01172,140.81836 L231.85938,145.66406 L239.27344,145.66406 L261.1543,145.66406 L272.69531,145.66406 L272.69531,131.36523 L261.1543,131.36523 L239.27344,131.36523 L239.27344,122.32422 L261.1543,122.32422 L272.69531,122.32422 L272.69531,108.16016 L272.69531,99.119141 L272.69531,92.060547 L267.84961,87.212891 L261.1543,87.212891 L239.27344,87.212891 L231.85938,87.212891 Z M239.27344,99.119141 L261.1543,99.119141 L261.1543,108.16016 L239.27344,108.16016 L239.27344,99.119141 Z" id="path3376" fill="#00A895" fill-rule="nonzero"></path>
                <polygon id="path3378" fill="#00A895" fill-rule="nonzero" points="164.585 172.2375 204.5425 172.2375 204.5425 0.625 164.585 0.625"></polygon>
                <polygon id="path3380" fill="#00A895" fill-rule="nonzero" points="139.30375 172.2375 99.34625 172.2375 99.34625 0.625 139.30375 0.625"></polygon>
            </g>
        </g>
    </g>
</svg>