<?xml version="1.0" encoding="UTF-8"?>
<svg width="650px" height="106px" viewBox="0 0 650 106" version="1.1" xmlns="http://www.w3.org/2000/svg" xmlns:xlink="http://www.w3.org/1999/xlink">
    <title>finalcad_svg</title>
    <defs>
        <filter id="filter-1">
            <feColorMatrix in="SourceGraphic" type="matrix" values="0 0 0 0 1.000000 0 0 0 0 1.000000 0 0 0 0 1.000000 0 0 0 1.000000 0"></feColorMatrix>
        </filter>
        <linearGradient x1="21.745774%" y1="98.9112788%" x2="78.1778245%" y2="1.15557253%" id="linearGradient-2">
            <stop stop-color="#FC9917" offset="1%"></stop>
            <stop stop-color="#FF8029" offset="20%"></stop>
            <stop stop-color="#FE6102" offset="64%"></stop>
            <stop stop-color="#F93C1F" offset="93%"></stop>
        </linearGradient>
    </defs>
    <g id="Page-1" stroke="none" stroke-width="1" fill="none" fill-rule="evenodd">
        <g filter="url(#filter-1)" id="finalcad_svg">
            <g>
                <path d="M53.93,51.8 L53.93,0.65 L70.93,0.65 L70.93,34.81 L105.09,34.81 L105.09,51.81 L53.93,51.8 Z M0.38,54.2 L0.38,71.2 L34.54,71.2 L34.54,105.36 L51.54,105.36 L51.54,54.2 L0.38,54.2 Z" id="Shape" fill="url(#linearGradient-2)" fill-rule="nonzero"></path>
                <polyline id="Path" fill="#172134" fill-rule="nonzero" points="219.67 39 219.67 102.2 204.56 102.2 204.56 39 219.67 39"></polyline>
                <polyline id="Path" fill="#172134" fill-rule="nonzero" points="411.19 10.12 411.19 102.24 396.08 102.24 396.08 10.12 411.19 10.12"></polyline>
                <path d="M212.11,7.78 C214.802432,7.67347821 217.418273,8.68939121 219.333055,10.5852149 C221.247836,12.4810386 222.289727,15.0866413 222.21,17.78 C222.21,23.51 217.96,27.66 212.11,27.66 C206.26,27.66 202,23.51 202,17.78 C201.920435,15.0884473 202.96098,12.4844914 204.873537,10.5889937 C206.786094,8.69349606 209.399268,7.67632327 212.09,7.78" id="Path" fill="#172134" fill-rule="nonzero"></path>
                <path d="M535.54,36.57 C555.92,36.57 569.61,50.32 569.61,70.77 L569.61,102.24 L555.8,102.24 L555.8,89.54 C552.24,99.16 543.46,103.93 532.8,103.93 C516.97,103.93 500.94,92.59 500.94,70.93 C500.94,50.69 515.17,36.57 535.54,36.57 Z M535.41,89.87 C546.65,89.87 554.5,81.8 554.5,70.25 C554.5,58.7 546.65,50.64 535.41,50.64 C524.17,50.64 516.18,58.7 516.18,70.25 C516.18,81.8 524.09,89.87 535.41,89.87" id="Shape" fill="#172134" fill-rule="nonzero"></path>
                <path d="M345.29,36.57 C365.68,36.57 379.37,50.32 379.37,70.77 L379.37,102.24 L365.56,102.24 L365.56,89.54 C362,99.16 353.22,103.93 342.56,103.93 C326.73,103.93 310.7,92.59 310.7,70.93 C310.7,50.69 324.93,36.57 345.29,36.57 Z M345.16,89.87 C356.41,89.87 364.26,81.8 364.26,70.25 C364.26,58.7 356.41,50.64 345.16,50.64 C333.91,50.64 325.94,58.7 325.94,70.25 C325.94,81.8 333.84,89.87 345.16,89.87" id="Shape" fill="#172134" fill-rule="nonzero"></path>
                <path d="M267.84,50.64 C278.32,50.64 284.33,57.31 284.33,68.95 L284.33,102.24 L299.44,102.24 L299.44,69 C299.44,50.56 289.56,36.62 267.84,36.62 C246.12,36.62 236.25,50.51 236.25,69 L236.25,102.29 L251.36,102.29 L251.36,69 C251.36,57.31 257.37,50.64 267.84,50.64 Z" id="Path" fill="#172134" fill-rule="nonzero"></path>
                <path d="M476.69,79.2 C473.69,85.89 467.18,89.87 459.13,89.87 C447.81,89.87 439.9,81.8 439.9,70.25 C439.9,58.7 447.81,50.64 459.13,50.64 C467.13,50.64 473.68,54.64 476.69,61.31 L492.09,61.31 C488.58,46.25 475.75,36.57 459.09,36.57 C439.09,36.57 424.62,50.74 424.62,70.25 C424.62,89.76 439.12,103.93 459.09,103.93 C475.71,103.93 488.54,94.26 492.09,79.2 L476.69,79.2 Z" id="Path" fill="#172134" fill-rule="nonzero"></path>
                <path d="M649.53,10.12 L649.53,69.73 C649.53,90.19 635.84,103.93 615.46,103.93 C595.08,103.93 580.87,89.82 580.87,69.6 C580.87,47.92 596.87,36.6 612.72,36.6 C621.97,36.6 629.58,40.05 634.43,47.41 L634.43,10.12 L649.53,10.12 M615.33,89.87 C626.57,89.87 634.43,81.8 634.43,70.25 C634.43,58.7 626.57,50.64 615.33,50.64 C604.09,50.64 596.1,58.7 596.1,70.25 C596.1,81.8 604.01,89.87 615.33,89.87" id="Shape" fill="#172134" fill-rule="nonzero"></path>
                <path d="M168.3,25.22 L188.3,25.22 L188.3,10.12 L168.3,10.12 C152.907531,10.1365234 140.432043,22.6075377 140.41,38 L140.41,102.23 L155.51,102.23 L155.51,64.13 L186.51,64.13 L186.51,50.64 L155.51,50.64 L155.51,38 C155.521025,30.9424691 161.242463,25.2255051 168.3,25.22 Z" id="Path" fill="#172134" fill-rule="nonzero"></path>
            </g>
        </g>
    </g>
</svg>