<?xml version="1.0" encoding="UTF-8"?>
<svg width="600px" height="528px" viewBox="0 0 600 528" version="1.1" xmlns="http://www.w3.org/2000/svg" xmlns:xlink="http://www.w3.org/1999/xlink">
    <title>Ville_de_Paris_logo_2019</title>
    <defs>
        <filter id="filter-1">
            <feColorMatrix in="SourceGraphic" type="matrix" values="0 0 0 0 1.000000 0 0 0 0 1.000000 0 0 0 0 1.000000 0 0 0 1.000000 0"></feColorMatrix>
        </filter>
    </defs>
    <g id="Page-1" stroke="none" stroke-width="1" fill="none" fill-rule="evenodd">
        <g filter="url(#filter-1)" id="Ville_de_Paris_logo_2019">
            <g>
                <path d="M56.406169,375.33987 L0,375.33987 L0,524.43688 L34.140576,524.43688 L34.140576,477.59667 L56.571094,477.59667 C85.928688,477.59667 108.68908,454.83628 108.68908,426.46828 C108.68908,398.10026 85.912183,375.33987 56.406169,375.33987 L56.406169,375.33987 Z M56.406169,445.60019 L33.97565,445.60019 L33.97565,407.33636 L56.406169,407.33636 C66.961706,407.33636 74.548503,415.58288 74.548503,426.46828 C74.548503,437.35367 66.961706,445.60019 56.406169,445.60019 Z M420.57227,375.33987 L454.71287,375.33987 L454.71287,524.43688 L420.57227,524.43688 L420.57227,375.33987 Z M384.61748,426.46828 C384.70908,398.19298 361.7644,375.24823 333.48909,375.339596 L273.93275,375.339596 L273.93275,524.43688 L308.07332,524.43688 L308.07332,477.59667 L325.39101,477.59667 L352.27464,524.43688 L388.88918,524.43688 L357.55242,470.50468 C374.06194,462.75295 384.61748,444.77554 384.61748,426.46828 L384.61748,426.46828 Z M333.65401,447.90921 L308.08981,447.90921 L308.08981,407.33636 L333.65401,407.33636 C343.05503,407.33636 350.64183,416.07767 350.64183,427.62278 C350.64183,439.16791 343.05503,447.90921 333.65401,447.90921 Z M158.8279,375.33987 L108.19428,524.43688 L145.46852,524.43688 L153.71504,498.21297 C171.25603,502.6111 189.61148,502.6111 207.15247,498.21297 L215.56394,524.43688 L252.83816,524.43688 L202.20456,375.33987 L158.8279,375.33987 Z M180.43375,471.65917 C174.48339,471.70847 168.55165,470.98786 162.78621,469.51508 L180.43375,414.26343 L198.0648,469.51508 C192.28989,470.90595 186.3737,471.62542 180.43375,471.65917 Z M557.7943,437.18875 C534.70406,430.26167 525.30304,426.30334 525.30304,416.90232 C525.30304,409.81032 532.06519,405.68706 541.30128,405.68706 C556.14502,405.68706 562.24743,413.60371 567.36028,421.02558 L595.72828,406.01691 C590.94532,396.61589 577.09117,372.37113 541.30128,372.37113 C516.06695,372.37113 491.32741,388.36937 491.32741,417.72697 C491.32741,452.85712 524.80826,459.45434 535.19887,463.0828 C545.58946,466.71127 566.04084,469.35016 566.04084,482.04979 C566.04084,490.95603 556.80475,494.25464 544.76482,494.25464 C531.40546,494.25464 520.685,486.83277 514.08778,475.45258 L485.04357,490.62615 C487.18767,496.89351 504.17548,527.40562 544.58341,527.40562 C576.41494,527.40562 599.999997,510.58273 599.999997,481.55499 C600.01708,458.62969 587.48178,445.93006 557.79432,437.18875 L557.7943,437.18875 Z" id="path4" fill="#002542" fill-rule="nonzero"></path>
                <path d="M483.70254,203.85055 C482.29184,203.85055 481.35135,205.02615 479.70554,208.3178 C445.8485,282.61515 383.30706,318.118 317.23887,318.58822 C185.33755,319.52871 154.30194,211.1392 153.59659,208.08267 L220.84039,220.54393 C221.0755,221.24928 246.93851,280.49907 314.88768,280.49907 C386.83385,280.49907 436.6789,208.78802 436.6789,134.72579 C436.6789,67.95222 408.4647,29.86307 367.78925,0.00304965 L184.63219,84.64561 C182.95322,85.40389 183.28343,87.88051 185.10244,88.17239 C286.43837,111.68421 303.83713,184.57084 298.89964,225.95166 C298.19429,232.06472 302.19129,231.12424 306.1883,219.60347 C320.06028,178.45778 310.18532,118.73776 255.16765,85.11585 C255.16765,85.11585 356.97381,34.09521 356.97381,34.33032 C369.19998,43.73505 409.17007,70.77363 409.17007,134.9609 C409.17007,199.14818 372.02138,257.45749 314.88768,257.45749 C258.22419,257.45749 238.47426,199.61842 238.00402,198.67796 L116.91814,172.3447 C115.00286,171.88962 113.20249,173.43959 113.36787,175.40124 C123.94817,267.80268 197.7753,343.27564 304.98922,343.27564 C393.86386,343.27564 454.28924,294.37105 479.91714,225.48142 C485.81862,209.49339 485.58349,203.85055 483.70254,203.85055 Z" id="path4-0" fill="#002542" fill-rule="nonzero"></path>
            </g>
        </g>
    </g>
</svg>