<?xml version="1.0" encoding="UTF-8"?>
<svg width="589px" height="181px" viewBox="0 0 589 181" version="1.1" xmlns="http://www.w3.org/2000/svg" xmlns:xlink="http://www.w3.org/1999/xlink">
    <title>World_Health_Organization_Logo</title>
    <defs>
        <filter id="filter-1">
            <feColorMatrix in="SourceGraphic" type="matrix" values="0 0 0 0 1.000000 0 0 0 0 1.000000 0 0 0 0 1.000000 0 0 0 1.000000 0"></feColorMatrix>
        </filter>
    </defs>
    <g id="Page-1" stroke="none" stroke-width="1" fill="none" fill-rule="evenodd">
        <g filter="url(#filter-1)" id="World_Health_Organization_Logo">
            <g>
                <polygon id="Path" fill="#009CDE" fill-rule="nonzero" points="250 42.7 249.9 42.7 241.9 84.5 230.9 84.5 220.5 33.5 229.3 33.5 236.5 72.8 236.6 72.8 244.3 33.5 255.7 33.5 263.3 72.8 263.4 72.8 270.9 33.5 279.4 33.5 268.9 84.5 257.7 84.5"></polygon>
                <path d="M292.6,46.2 C300.3,46.2 309.1,50.2 309.1,65.5 C309.1,81.3 300.3,84.9 292.6,84.9 C284.9,84.9 276,81.2 276,65.5 C276.1,50.2 285,46.2 292.6,46.2 Z M292.6,78.6 C298.4,78.6 299.8,71.9 299.8,65.6 C299.8,59.3 298.5,52.7 292.6,52.7 C286.7,52.7 285.4,59.3 285.4,65.6 C285.4,71.9 286.8,78.6 292.6,78.6 Z" id="Shape" fill="#009CDE" fill-rule="nonzero"></path>
                <path d="M313.6,53 C313.6,50.9 313.5,48.9 313.3,46.8 L321.5,46.8 C321.6,49.1 321.8,51.4 321.8,53.7 L321.9,53.7 C323,50.8 325.8,46.3 331.5,46.3 C332,46.3 332.5,46.4 333,46.5 L333,55 C332.2,54.8 331.3,54.6 330.5,54.6 C326.8,54.6 322.7,56.9 322.7,63.9 L322.7,84.5 L313.7,84.5 L313.6,53 Z" id="Path" fill="#009CDE" fill-rule="nonzero"></path>
                <polygon id="Path" fill="#009CDE" fill-rule="nonzero" points="336.9 29.7 346 29.7 346 84.4 336.9 84.4"></polygon>
                <path d="M382.9,29.7 L382.9,78 C382.9,80.1 383,82.3 383.2,84.4 L374.7,84.4 C374.5,82.5 374.4,80.5 374.4,78.6 L374.2,78.6 C372.7,81.8 370,85 364.2,85 C354.9,85 351,76.1 351,65.7 C351,53.4 355.9,46.3 364,46.3 C368.2,46.1 372,48.5 373.7,52.3 L373.8,52.3 L373.8,29.7 L382.9,29.7 Z M366.6,78.3 C371.9,78.3 373.7,72.5 373.7,65.5 C373.7,58.2 371.7,52.9 366.7,52.9 C361.7,52.9 359.9,57.8 359.9,65.3 C360,74 361.4,78.3 366.6,78.3 Z" id="Shape" fill="#009CDE" fill-rule="nonzero"></path>
                <polygon id="Path" fill="#009CDE" fill-rule="nonzero" points="409.8 33.5 419.2 33.5 419.2 54.2 434.3 54.2 434.3 33.5 443.6 33.5 443.6 84.5 434.3 84.5 434.3 61.9 419.2 61.9 419.2 84.4 409.8 84.4"></polygon>
                <path d="M476.7,82.6 C473.2,84.2 469.3,85 465.5,85 C453.4,85 448.1,76.3 448.1,66.2 C448.1,55 454,46.3 463.6,46.3 C471.7,46.3 478.6,51 478.6,66.4 L478.6,68.2 L456.9,68.2 C456.9,74.6 459.5,78.5 466.5,78.5 C472,78.5 474.7,76.8 476.4,75.6 L476.7,82.6 Z M469.8,62.4 C469.8,55.8 467.6,52.4 463.5,52.4 C458.7,52.4 456.8,57.4 456.8,62.4 L469.8,62.4 Z" id="Shape" fill="#009CDE" fill-rule="nonzero"></path>
                <path d="M484.4,49 C488.1,47.2 492.2,46.2 496.3,46.2 C508,46.2 510.7,51.9 510.7,61.3 L510.7,77.7 C510.7,79.9 510.9,82.1 511.2,84.3 L503,84.3 C502.6,82.6 502.4,80.9 502.5,79.2 L502.4,79.2 C500.1,82.3 497.3,84.9 491.9,84.9 C486.1,84.9 480.7,80.9 480.7,73.9 C480.7,63.7 489,61.1 500.5,61.1 L502.3,61.1 L502.3,59.7 C502.3,56 500.5,52.5 495.3,52.5 C491.6,52.6 488,53.9 485,56.2 L484.4,49 Z M502.2,66 L501.4,66 C493.7,66 489.1,67.6 489.1,73.1 C488.9,76.1 491.2,78.7 494.2,78.9 C494.4,78.9 494.7,78.9 494.9,78.9 C500.3,78.9 502.3,74.9 502.3,68.2 L502.3,66 L502.2,66 Z" id="Shape" fill="#009CDE" fill-rule="nonzero"></path>
                <polygon id="Path" fill="#009CDE" fill-rule="nonzero" points="519 29.7 528 29.7 528 84.4 519 84.4"></polygon>
                <path d="M538.4,39.1 L547.4,36.3 L547.4,46.8 L554.9,46.8 L554.9,53.4 L547.4,53.4 L547.4,73 C547.4,77 548.9,78.2 551.5,78.2 C552.7,78.2 553.9,77.9 554.9,77.4 L554.9,83.8 C553,84.6 550.9,85 548.8,85 C542.1,85 538.3,81.9 538.3,74 L538.3,53.5 L532.3,53.5 L532.3,46.9 L538.3,46.9 L538.3,39.1 L538.4,39.1 Z" id="Path" fill="#009CDE" fill-rule="nonzero"></path>
                <path d="M557.8,29.7 L566.8,29.7 L566.8,51.7 L567,51.7 C568.6,49.4 570.7,46.3 576.3,46.3 C584.8,46.3 587.4,52.6 587.4,60.2 L587.4,84.4 L578.4,84.4 L578.4,61.9 C578.4,56.1 576.9,53.7 573.2,53.7 C568.5,53.7 566.8,57.7 566.8,62.5 L566.8,84.4 L557.8,84.4 L557.8,29.7 Z" id="Path" fill="#009CDE" fill-rule="nonzero"></path>
                <path d="M241.2,98 C251.8,98 261.5,105.9 261.5,124.2 C261.5,142.5 251.8,150.4 241.2,150.4 C230.6,150.4 220.9,142.5 220.9,124.2 C220.9,105.9 230.6,98 241.2,98 Z M241.2,143.3 C247.1,143.3 251.9,138.3 251.9,124.2 C251.9,110.1 247.1,105.2 241.2,105.2 C235.3,105.2 230.5,110.2 230.5,124.2 C230.5,138.2 235.3,143.3 241.2,143.3 L241.2,143.3 Z" id="Shape" fill="#009CDE" fill-rule="nonzero"></path>
                <path d="M265.3,118.3 C265.3,116.2 265.2,114.2 265,112.1 L273.2,112.1 C273.3,114.4 273.5,116.7 273.5,119 L273.6,119 C274.7,116.1 277.6,111.6 283.2,111.6 C283.7,111.6 284.2,111.7 284.7,111.8 L284.7,120.3 C283.9,120.1 283,119.9 282.1,119.9 C278.4,119.9 274.3,122.2 274.3,129.2 L274.3,149.8 L265.3,149.8 L265.3,118.3 Z" id="Path" fill="#009CDE" fill-rule="nonzero"></path>
                <path d="M289.1,155.6 C292.5,157.6 296.3,158.7 300.2,158.8 C308.7,158.8 310.1,152.9 310.1,147 L310.1,143.4 L310,143.4 C308.5,146.3 306,149.8 300.1,149.8 C294.9,149.8 287,146.3 287,131.1 C287,120.7 290.7,111.6 300.6,111.6 C306.1,111.6 308.6,114.7 310.5,118 L310.8,118 C310.8,116 311,114.1 311.1,112.2 L319.3,112.2 C319.2,114.2 319,116.1 319,118.1 L319,145.8 C319,157.6 315.4,165.9 301.6,165.9 C297.2,165.9 292.8,165.1 288.7,163.6 L289.1,155.6 Z M302.2,143.1 C307.9,143.1 310.2,139 310.2,130.5 C310.2,122.6 307.2,118.4 302.9,118.5 C298.1,118.6 296.3,123 296.3,130.6 C296.3,139.4 299.1,143.1 302.2,143.1 Z" id="Shape" fill="#009CDE" fill-rule="nonzero"></path>
                <path d="M327,114.3 C330.7,112.4 334.8,111.5 338.9,111.5 C350.6,111.5 353.3,117.2 353.3,126.6 L353.3,143 C353.3,145.2 353.5,147.4 353.8,149.6 L345.6,149.6 C345.2,147.9 345,146.2 345.1,144.5 L345,144.5 C342.7,147.6 339.9,150.2 334.5,150.2 C328.7,150.2 323.3,146.2 323.3,139.2 C323.3,129 331.6,126.4 343.1,126.4 L344.9,126.4 L344.9,125 C344.9,121.3 343.1,117.8 337.9,117.8 C334.2,117.9 330.6,119.2 327.6,121.5 L327,114.3 Z M344.8,131.3 L344,131.3 C336.3,131.3 331.7,132.9 331.7,138.4 C331.5,141.4 333.8,144 336.8,144.2 C337,144.2 337.2,144.2 337.5,144.2 C342.9,144.2 344.9,140.2 344.9,133.5 L344.8,131.3 Z" id="Shape" fill="#009CDE" fill-rule="nonzero"></path>
                <path d="M360.6,118.3 C360.6,116.2 360.5,114.2 360.3,112.1 L368.8,112.1 C368.9,114 369.1,116 369.1,117.9 L369.2,117.9 C370.5,115.6 373.1,111.6 379.2,111.6 C387.7,111.6 390.3,117.9 390.3,125.5 L390.3,149.7 L381.2,149.7 L381.2,127.1 C381.2,121.3 379.7,118.9 376,118.9 C371.3,118.9 369.6,122.9 369.6,127.7 L369.6,149.6 L360.6,149.6 L360.6,118.3 Z" id="Path" fill="#009CDE" fill-rule="nonzero"></path>
                <path d="M397.2,96.1 L406.6,96.1 L406.6,105 L397.2,105 L397.2,96.1 Z M397.4,112.1 L406.4,112.1 L406.4,149.7 L397.4,149.7 L397.4,112.1 Z" id="Shape" fill="#009CDE" fill-rule="nonzero"></path>
                <polygon id="Path" fill="#009CDE" fill-rule="nonzero" points="413.5 141.9 429.6 119 414 119 414 112.1 438.6 112.1 438.6 119.8 422.8 142.8 439.1 142.8 439.1 149.7 413.4 149.7 413.4 141.9"></polygon>
                <path d="M446,114.3 C449.7,112.4 453.8,111.5 457.9,111.5 C469.6,111.5 472.3,117.2 472.3,126.6 L472.3,143 C472.3,145.2 472.5,147.4 472.8,149.6 L464.6,149.6 C464.2,147.9 464,146.2 464.1,144.5 L464,144.5 C461.7,147.6 458.9,150.2 453.5,150.2 C447.7,150.2 442.3,146.2 442.3,139.2 C442.3,129 450.6,126.4 462.1,126.4 L463.9,126.4 L463.9,125 C463.9,121.3 462.1,117.8 456.9,117.8 C453.2,117.9 449.6,119.2 446.6,121.5 L446,114.3 Z M463.8,131.3 L463,131.3 C455.3,131.3 450.7,132.9 450.7,138.4 C450.5,141.4 452.8,144 455.8,144.2 C456,144.2 456.2,144.2 456.5,144.2 C461.9,144.2 463.9,140.2 463.9,133.5 L463.9,131.3 L463.8,131.3 Z" id="Shape" fill="#009CDE" fill-rule="nonzero"></path>
                <path d="M482.1,104.4 L491.1,101.6 L491.1,112.1 L498.6,112.1 L498.6,118.7 L491.1,118.7 L491.1,138.2 C491.1,142.2 492.6,143.4 495.2,143.4 C496.4,143.4 497.6,143.2 498.6,142.6 L498.6,149 C496.7,149.9 494.6,150.3 492.5,150.2 C485.8,150.2 482,147.1 482,139.3 L482,118.7 L476,118.7 L476,112.1 L482,112.1 L482.1,104.4 Z" id="Path" fill="#009CDE" fill-rule="nonzero"></path>
                <path d="M504.1,96.1 L513.4,96.1 L513.4,105 L504.1,105 L504.1,96.1 Z M504.3,112.1 L513.4,112.1 L513.4,149.7 L504.4,149.7 L504.3,112.1 Z" id="Shape" fill="#009CDE" fill-rule="nonzero"></path>
                <path d="M534.9,111.5 C542.6,111.5 551.4,115.5 551.4,130.8 C551.4,146.6 542.6,150.2 534.9,150.2 C527.2,150.2 518.3,146.6 518.3,130.8 C518.4,115.6 527.3,111.5 534.9,111.5 Z M534.9,143.9 C540.7,143.9 542.1,137.2 542.1,130.9 C542.1,124.6 540.8,118 534.9,118 C529,118 527.7,124.6 527.7,130.9 C527.7,137.2 529.1,143.9 534.9,143.9 Z" id="Shape" fill="#009CDE" fill-rule="nonzero"></path>
                <path d="M558.6,118.3 C558.6,116.2 558.5,114.2 558.3,112.1 L566.8,112.1 C566.9,114 567.1,116 567.1,117.9 L567.2,117.9 C568.5,115.6 571.1,111.6 577.2,111.6 C585.7,111.6 588.3,117.9 588.3,125.5 L588.3,149.7 L579.3,149.7 L579.3,127.1 C579.3,121.3 577.8,118.9 574.1,118.9 C569.4,118.9 567.7,122.9 567.7,127.7 L567.7,149.6 L558.7,149.6 L558.6,118.3 Z" id="Path" fill="#009CDE" fill-rule="nonzero"></path>
                <g id="g640" transform="translate(0.000000, 14.000000)" fill="#009CDE" fill-rule="nonzero">
                    <path d="M165.9,19 C169.8,23.7 176.6,26.4 180.6,31.1 C177.7,17.3 167.1,6 154.5,3.3 C160.7,7.9 162,14.3 165.9,19 M14.7,54 C23.4,35.1 36.3,39.1 41.8,21.2 C38.6,26.6 24.5,28.9 18,43 C21.4,34.6 19.7,21.8 25.3,14.8 C8.4,27.4 15.6,47.6 14.7,54 M30.3,99.2 C31.9,106.5 27.3,117.2 34.6,127.3 C27.1,118.9 11.1,116.7 4.6,103.9 C12.7,135.2 33.9,128.8 43.4,135.6 C35.6,124.3 42,116.8 30.3,99.2 M27.9,118.9 C23.2,101.4 31.5,95.3 25.2,78.5 C24.6,88 18.2,92.6 22.5,109.9 C15,95.2 3.4,89.7 0,79.7 C0.2,107.2 22.3,111.3 27.9,118.9 M61.8,148.2 C55.3,139.2 59.7,134.1 41.5,117.8 C45.4,123.8 41.4,131.3 53.7,142.9 C41.7,135.8 25,138.8 17,129.3 C30.8,155.7 55,144.9 61.8,148.2 M150.3,142.9 C162.6,131.2 158.6,123.7 162.5,117.8 C144.2,134.1 148.7,139.2 142.1,148.2 C149,144.9 173.2,155.7 186.9,129.3 C179,138.9 162.3,135.8 150.3,142.9 M169.4,127.3 C176.7,117.2 172.1,106.6 173.6,99.2 C161.9,116.8 168.3,124.3 160.5,135.6 C170.1,128.8 191.2,135.2 199.3,103.9 C192.8,116.7 176.9,118.9 169.4,127.3 M140.2,149.5 C133.7,147.8 127,146.7 120.2,146.5 C114,146.4 107.8,147.4 102,149.6 C96.2,147.4 90,146.4 83.8,146.5 C77,146.7 70.3,147.8 63.8,149.5 C52.8,152.4 43.3,154.7 35,150.5 C42.9,157.5 52.2,160.1 65.6,158.6 C76.7,157.4 85.7,151.8 96.2,151.9 L96.6,151.9 C90,155.2 84.1,159.8 79.3,165.4 L84.4,166.1 C84.4,166.1 89.7,155.4 102,152.6 C114.3,155.4 119.6,166.1 119.6,166.1 L124.7,165.4 C119.9,159.8 114,155.2 107.4,151.9 L107.8,151.9 C118.3,151.8 127.3,157.4 138.4,158.6 C151.8,160 161,157.5 169,150.5 C160.7,154.7 151.2,152.4 140.2,149.5 M26,59.5 C21.5,68.2 14.4,70.2 15.2,88.1 C11.4,72.2 2.3,66.2 2.4,56.1 C-3.9,82.7 12.9,85.8 17.3,97 C16.6,81 26.8,77.8 26,59.5 M32.3,39 C30.7,41.2 29.6,42.2 25.4,45.6 C19.1,50.6 14.7,57.7 13.2,65.6 C13.6,55.8 7.6,41.8 11.6,31.6 C-3.9,53.5 12.5,66.6 13.1,74.6 C17,59.3 26.3,59.2 32.3,39 M190.8,65.6 C189.2,57.7 184.9,50.6 178.6,45.6 C174.4,42.1 173.3,41.2 171.7,39 C177.7,59.2 187,59.3 191,74.6 C191.6,66.7 208,53.6 192.5,31.6 C196.5,41.8 190.5,55.8 190.8,65.6 M204,79.7 C200.6,89.8 189,95.2 181.5,109.9 C185.8,92.6 179.4,88 178.8,78.5 C172.5,95.3 180.8,101.4 176.1,118.9 C181.7,111.3 203.8,107.2 204,79.7 M178,59.5 C177.1,77.8 187.4,81 186.7,97 C191,85.9 207.9,82.7 201.6,56.1 C201.7,66.3 192.6,72.2 188.8,88.2 C189.6,70.1 182.6,68.2 178,59.5 M38.1,19 C42,14.3 43.3,7.9 49.5,3.3 C36.8,6 26.2,17.2 23.3,31 C27.3,26.3 34.2,23.6 38.1,19 M162.3,21 C167.8,39 180.7,35 189.4,53.8 C188.5,47.5 195.7,27.2 178.8,14.8 C184.5,21.7 182.8,34.6 186.1,43 C179.5,28.9 165.4,26.6 162.3,21 M118.3,31.3 C115,29.9 111.5,29 108,28.5 C108,29.3 108,30 108,30.8 C111.3,31.3 114.5,32.2 117.5,33.4 C117.9,32.7 118.2,32 118.3,31.3 M115.7,9 L116.4,8.4 L115.1,7.8 L111.6,7.7 L110.7,8.3 L108.7,8.1 L108.7,8.6 C110,8.7 111.3,8.8 112.3,9 L114,8.9 L115.7,9 Z M109.1,83.6 C109.1,83 108.3,82.4 107.2,81.9 L107,81.9 C107,82.4 106.9,84.7 106.9,85.9 C108.2,85.2 109.1,84.6 109.1,83.6 M69,39.7 C69.1,39.3 69.2,38.8 69.3,38.4 C68.8,38.5 68.4,38.6 67.9,38.5 L69,39.7 Z M52.9,23.6 L61.1,31.8 C51.2,42.1 45.6,55.9 45.4,70.2 L33.8,70.2 C34,52.7 40.8,36.1 52.9,23.6 M47.9,87.4 L47.2,87.3 L46.5,86.6 L43.2,86.3 L44.2,87.7 L41.2,87.1 L42,86.4 L41.3,85.7 L39.1,86.6 L38.3,88 L38.6,91.3 L41.1,97.3 L42.3,99.2 L43,99.4 L41.1,95.8 L40.7,94 L41.1,93.6 L40.8,92.6 L41.9,92.8 L43.7,95.4 L44.1,95.6 L44.1,93.7 L44.8,94.1 L45,95.1 L46.8,95.6 L47.6,95 L47.9,95.2 L47.9,96.6 L48.7,97.6 L49.7,97.8 L51.9,101.4 L53.2,101.8 L53.6,100.1 C55.9,103.8 58.5,107.3 61.6,110.4 L53.4,118.6 C41.2,106.3 34.2,89.8 33.8,72.5 L45.4,72.5 C45.5,77.5 46.4,82.6 47.9,87.4 M59.3,72.4 C59.3,73.5 59.4,74.6 59.6,75.8 L58.2,76.1 L57.9,77.5 L54.9,81.3 L55,86.5 L52,87.5 L50.3,87.5 C48.7,82.6 47.9,77.6 47.7,72.4 L59.3,72.4 L59.3,72.4 Z M61.9,105.1 L64.5,106.6 L65,107 L63.1,108.9 C62.2,108 61.4,107.1 60.6,106.1 L61.9,105.1 Z M72.5,43.2 L80.7,51.4 C79,53.3 77.5,55.4 76.4,57.7 L75.8,57.7 L74.6,58 L74.2,58 L73,59.1 L74.6,58.9 L76,58.6 L75.7,59 L74.5,59.8 L73.9,59.8 L72.1,61.2 L70.4,61 L67.9,65.7 L68.4,66.6 L67,68.2 L66.8,70.2 L61.6,70.2 C61.7,60.1 65.6,50.5 72.5,43.2 M80.9,77.1 L81.5,76.8 L83,77.9 L82.3,78.4 L84,79.5 L83.9,78.3 L84.8,76.8 L85.8,77.8 L86.8,79.2 L85,79.7 L85.8,81.3 L87,80.6 L86.8,80.1 L87.7,79.5 L88.2,77 C88.9,78.5 89.8,79.9 90.9,81.1 L82.7,89.3 C78.7,85.1 76.2,79.7 75.5,73.9 L77.2,75.7 L78.8,75.7 L80.9,77.1 Z M69.1,68.4 L69.3,66.1 L70.7,65.3 L73.2,65.7 L73.6,66.1 C73.4,67.4 73.3,68.8 73.2,70.1 L70.4,70.1 L69.1,68.4 Z M65.3,76.4 L64.2,78.1 L62.3,78.1 L62.2,78 C61.9,76.2 61.7,74.3 61.6,72.5 L65.1,72.5 L64.3,75.3 L65.3,76.4 Z M73,99 C72.2,98.1 71.3,97.2 70.6,96.3 L71,93.4 L69.8,90.6 L69.5,86.2 L68.1,83.5 L68.4,81.8 L66.7,78.6 L65.3,77.9 L65.9,76.2 L65.3,74.9 L65.9,73.4 L67.5,73.4 L68.1,72.5 L70.8,72.5 L71.2,73.3 L70.6,76 L70.3,76.5 L71.3,78.7 L70.6,79.1 L70.1,78.5 L69.9,78.7 L70.4,80 L71.2,81.5 L71.6,81.5 L71.8,80.1 L71.4,79.6 L71.4,78.7 L71.3,76.8 L71.9,73.4 L71.3,72.5 L73.2,72.5 C73.6,79.4 76.4,85.9 81.2,90.9 L73,99 Z M142.8,110.2 C152.7,100 158.4,86.5 158.7,72.4 L170.3,72.4 C169.9,89.6 163,106.1 150.9,118.4 L142.8,110.2 Z M139.6,107 L140.5,106 L139.6,101.5 L139,101.3 L139.4,100.5 L137.5,99.9 L137.1,101.5 L136.9,103.5 L136.5,103.9 L133,100.4 C140.3,92.8 144.5,82.9 144.9,72.4 L156.5,72.4 C156.1,86 150.7,98.9 141.2,108.6 L139.6,107 Z M129.4,117.9 L130.5,115.6 L130.1,114.6 L131.7,113.2 L131.7,112.4 L130.3,111.5 L131.4,109.2 L133.1,107 L131.4,105.2 L130.1,105.2 L129.3,103.9 C130,103.3 130.7,102.7 131.3,102.1 L139.5,110.3 C136.5,113.2 133.1,115.8 129.4,117.9 M127.8,95.3 L126.7,94.2 L127.5,93.1 L128.6,90.9 L128.2,90.3 L128.9,88.7 L128.8,87.2 L128.4,85.7 L127.4,85.4 L127,86.2 L126.4,86 C127.3,84.7 128.1,83.2 128.8,81.8 L129.8,81.4 L130.4,80.6 L130.7,80.9 L131.4,80.1 L130.8,79.4 L131.3,79.3 L132.2,79.7 L134,79.7 L135.1,79.1 L137.9,78.3 L137.4,77.4 L137.2,76.3 L138.7,77 L139.3,76.7 L139,75.5 L137.1,76.2 L135.1,75.8 L133.5,72.6 L142.4,72.6 C142,82.5 138,91.9 131.2,99 L130,97.8 L130.5,96.2 L129.6,92.6 L127.8,95.3 Z M123.6,51.7 L131.8,43.5 C133.7,45.6 135.4,47.9 136.9,50.3 L135.9,50.6 L136,52.4 L139,54.3 C139.8,56 140.4,57.7 140.9,59.5 L140.4,60.3 L139.3,61.1 L139,62.8 L138.2,63.2 L137.6,64 L137,63.7 L135.9,63.7 L136.5,62.8 L137,60.5 L137.8,60 L135.6,57.9 L134,58.5 L133.6,60.1 L132.6,61.2 L131.5,60.3 L131.1,59.3 L131.7,58.9 L132,59.5 L132.5,59.3 L132.3,58.3 L131.6,58.3 L131.6,58.7 L131.1,58.8 L128.6,55.8 L127.7,55.1 L128,54.8 L128.8,54.5 L128,54.2 C128,54.2 127.1,54.4 127,54.4 L127.5,55.1 L126.2,55.1 C125.4,53.8 124.6,52.7 123.6,51.7 M124.9,96.4 L122.4,95.7 L121.6,96 L120.2,94.9 L118.9,94.4 C119.6,93.9 120.2,93.4 120.8,92.9 L122.9,94.4 L124.5,95.2 L125.3,96 L124.9,96.4 Z M120.5,57.9 L121.5,57.7 L121.5,57.5 L120.5,56.8 L120.8,54.6 L122,53.3 C122.8,54.2 123.5,55.1 124.2,56.1 L123.8,57.4 L122.7,56.6 L121.8,56.8 L122.2,57.6 L122.6,57.6 L122.1,58.8 L121.8,58.3 L120.5,57.9 Z M134.4,65.9 L136.5,64.8 L138.6,64.5 L139.1,63.5 L140.3,62.8 L140.8,61.8 L141.2,60.1 C141.4,60.7 141.5,61.3 141.7,61.9 L140.6,65.2 L140.6,66.3 L142,64 C142.3,66 142.5,68.1 142.6,70.1 L132.4,70.1 L132.2,69.2 L133.4,68.3 L133.6,67.7 L134.1,67.3 L135.5,67.1 L135.6,66.5 L134.4,65.9 Z M136.7,38.7 L139.5,38.8 L140.2,39.6 L139.9,40.8 L143.8,43.2 L144.6,43.1 L149.5,48.8 L151.5,48.1 C154.7,55 156.4,62.6 156.5,70.2 L144.9,70.2 C144.9,67.2 144.5,64.3 143.8,61.4 L144.3,60.7 L145,57 L144.5,53.1 L143.1,48.6 L139.9,43.9 L140.7,44.3 L141.1,43.9 L138.5,42.1 L138.3,42.7 L140.9,46.4 L142.4,49.4 L143.4,52.4 L143.7,54.4 L144.2,57.8 L143.2,57.9 C143.2,57.9 142.1,55.8 141.7,54.9 L142.2,54.1 L141.2,52.7 L141.2,51.4 L140.5,50.5 L139.6,50.6 C139.3,50 139,49.4 138.6,48.9 L139.2,49.2 L139.4,49 L139.1,48.3 L139.9,47.9 L139.6,47.5 L138.5,47.9 L138.9,46.1 L138.2,45.7 L137.6,47.1 C136.3,45.2 134.9,43.4 133.4,41.7 L136.7,38.7 Z M151.5,23.8 C163.5,36.3 170.2,52.9 170.4,70.2 L158.8,70.2 C158.7,61.6 156.7,53.1 152.8,45.4 L152.9,45.2 L153.7,45.6 L153.9,45 L151.8,41.4 L149.3,38 L146.4,35.6 C145.4,34.4 144.4,33.2 143.3,32 L151.5,23.8 Z M102.1,141.400274 C141.1,141.400274 172.7,109.7 172.600237,70.7 C172.600237,34.5 145.2,4.2 109.2,0.5 L109.1,0.9 C109,1.6 108.8,2.2 108.7,2.8 C124.2,4.3 138.7,11.1 149.8,22 L142,29.8 L142.3,28.4 L141.3,27.9 L140,28 L140.3,27.1 L139.4,23.9 L137.5,21.8 L131.4,18.6 L130.9,19.2 L129.8,19.5 C131.9,22.5 133,26.1 133,29.7 C133,30.2 133,30.6 133,31.1 L136,34.9 L134.6,35.2 L135.5,36.6 L132.8,39.3 L131.7,37.3 C131.2,38.7 130.5,40.1 129.7,41.3 L130.3,41.8 L122,50 C121.5,49.5 121,49.1 120.5,48.6 C119.7,49 118.9,49.3 118.1,49.6 L118.8,50.1 L118.4,50.5 L117.4,51 L117,52 L116.4,51.4 L114.7,52 L115.2,52.8 L116.4,52.5 L117.2,52.6 L117.3,52.2 L117.9,51.9 L118.1,51.6 L119.2,51.3 L120,51.3 L120.5,51.7 L117.3,55 L117.1,54.7 L113.7,55.3 L112.9,56.1 L112.2,56.2 L114.3,54.2 L113.5,53.8 L111.5,56.4 L112.1,56.3 L112.1,57.3 L112.8,57.6 L112.9,58.6 L111.7,58.4 L110.5,58.6 L107.5,57.1 C107.5,57.1 107.3,65.1 107.3,69.1 C114.3,71.5 121.8,74.9 121.8,83.9 C121.9,87.7 119.9,91.3 116.7,93.4 L116.7,93.4 L116.5,93.5 L116.5,93.5 L116.3,93.7 C113.5,95.6 109.8,96.6 106.6,97.6 L106.5,103.9 C111.6,106.4 117.7,110.1 117.1,120.5 C117,123.1 116,123.8 115.2,124 L115.2,124 C112.2,124.7 109.1,125.2 106.1,125.4 C106.1,126.2 106.1,127 106.1,127.7 C119.3,126.8 131.7,121.3 141.3,112.2 L149.5,120.4 C123.2,145.8 81.5,145.8 55.1,120.6 L63.3,112.4 C72.8,121.3 85.1,126.7 98.1,127.7 C98.1,127 98.1,126.2 98.1,125.4 C85.7,124.4 74.1,119.3 65.1,110.7 L67.2,108.5 L70.2,108.8 L71.8,107.1 L76,107.3 L76.6,105.8 L76.4,105.2 C82.6,109.9 90,112.9 97.8,113.7 C97.8,112.8 97.8,112 97.8,111.4 C89.2,110.4 81.2,106.8 74.8,100.9 L83,92.7 C85,94.5 87.2,96 89.7,97.2 C89.9,96.4 90.1,95.7 90.5,95 C88.4,93.9 86.4,92.6 84.7,91.1 L92.9,82.9 C94.2,83.9 95.7,84.8 97.2,85.3 C97.2,84.5 97.2,83.6 97.2,82.8 C96.2,82.4 95.3,81.8 94.5,81.2 L96.8,78.9 C96,78.7 95.2,78.4 94.4,78.1 L92.8,79.7 C92,78.8 91.3,77.8 90.8,76.8 C89.4,76.2 88,75.5 86.7,74.6 C81.9,71.7 79,66.4 79.1,60.7 C79,56.9 80.1,53.1 82.4,50.1 L74.2,41.9 C80.2,36.1 87.9,32.4 96.1,31.1 C96.1,30.3 96.1,29.5 96.1,28.8 C87.3,30.1 79,34.1 72.6,40.3 L71.2,38.9 C70.9,39.4 70.5,40.1 70.1,41 L71,41.9 C63.7,49.6 59.6,59.8 59.4,70.4 L47.7,70.4 C47.9,56.7 53.2,43.6 62.7,33.6 L66.4,37.3 C66.6,37.3 66.7,37.3 66.9,37.3 C67.6,37.2 68.4,37 69,36.7 L64.3,32 C66.8,29.6 69.5,27.4 72.4,25.5 C72.6,24.9 72.7,24.3 73,23.8 C73.5,23 74.1,22.2 74.8,21.4 C70.4,23.8 66.4,26.8 62.8,30.3 L54.6,22.1 C65.6,11.4 79.9,4.7 95.3,3.1 C95.3,2.8 95.2,2.6 95.2,2.6 C95.1,2 95,1.5 94.9,0.8 C56,4.8 27.9,39.5 32,78.3 C35.8,114.2 66,141.5 102.1,141.400274 M136.8,19.3 L136.1,18.2 L134.6,17.4 L133.4,18.3 L134.9,19.1 L136.6,20.3 L136.8,19.3 Z M129.8,52.1 L129.9,53 L131.9,52.4 L132.5,51.2 L131.1,49.4 L131.8,48.3 L133.7,49.6 L134,49.3 L133.6,49 L133.2,48.2 L134,47.8 L133.2,46.8 L131.4,47.7 L130.8,48.8 L130.4,49.8 L131.2,51.1 L130.9,51.7 L129.8,52.1 Z M46,104.1 L46.1,103.6 L45.1,101.3 L43.9,100.8 L46,104.1 Z M93.3,60.5 C93.3,62.5 94.5,63.8 96.6,65 C96.6,65 96.6,64.7 96.6,64.1 L95.3,62.7 L96,61.4 L96.6,61.2 C96.5,58.9 96.5,56.4 96.5,56 L96.4,56 C94.4,57.2 93.4,58.6 93.3,60.5" id="path642"></path>
                </g>
                <g id="g644" transform="translate(106.000000, 120.000000)" fill="#009CDE" fill-rule="nonzero">
                    <path d="M0.3,4.8 C3.9,6.6 7.3,9.2 8.7,14 C9.3,6 4.8,2.6 0.4,0.2 L0.3,4.8" id="path646"></path>
                </g>
                <g id="g648" transform="translate(81.000000, 25.000000)" fill="#009CDE" fill-rule="nonzero">
                    <path d="M49.5,18.7 C49.5,11.4 44.2,3.4 31.3,0.6 C30,0.4 28.7,0.2 27.4,0.1 C27.4,1.2 27.3,3.7 27.3,3.7 C27.3,4.5 27.2,7.4 27.2,8 C28,8.1 28.9,8.2 29.7,8.3 C37.2,10.1 39.9,14.4 39.9,18.6 C39.9,25.5 34,28.1 26.8,30.1 L24.4,30.7 C22.2,31.2 19.9,31.8 17.7,32.4 C16.9,32.6 16.1,32.8 15.3,33.1 C7.3,35.5 0.4,39.4 0.4,49.3 C0.4,59.2 8.3,62.8 16,65.2 C16,62.4 15.9,59.5 15.8,56.7 C12.3,55.1 10,53 10,49.5 C10,46 12.2,44 15.5,42.5 C16.2,42.2 17,41.9 17.9,41.6 C19.8,40.9 22,40.4 24.2,39.8 L26.6,39.2 C37.4,36.6 49.6,33.2 49.5,18.7" id="path650"></path>
                </g>
                <g id="g652" transform="translate(91.000000, 85.000000)" fill="#009CDE" fill-rule="nonzero">
                    <path d="M0.6,28 C0.6,32 3.5,34.1 6.4,35.8 C6.4,35.1 6.3,29 6.3,28.9 C6.4,27.7 7.5,26.9 8.5,26.5 C10,25.8 11.6,25.2 13.2,24.7 C14.1,24.4 14.8,24.1 15.6,23.9 C21.5,22.1 28.3,19.9 28.3,12.7 C28.3,5.5 22.5,2.6 16.1,0.4 C16,2.7 16,6 15.9,8.3 C18.6,9.3 20.4,10.6 20.4,12.7 C20.4,15.3 17.7,16.7 15.7,17.5 C14.9,17.8 13.7,18.2 13.3,18.3 C11.7,18.8 10.1,19.3 8.5,19.9 C7.7,20.2 6.9,20.5 6.1,20.9 C3.5,22.3 0.6,24.4 0.6,28" id="path654"></path>
                </g>
                <g id="g656" transform="translate(66.000000, 26.000000)" fill="#009CDE" fill-rule="nonzero">
                    <path d="M29.6,0.2 C27.2,1 24.8,1.9 22.5,3.1 C20,3.9 16.4,4.1 12.7,8.1 C11.5,9.5 10.4,11 9.3,12.5 C8.2,14.1 8.1,16.7 7.3,18 C6.1,20 6.4,21.2 6.4,21.2 L6.4,21.2 C6.2,22.1 5.7,23 5.1,23.7 C3.9,25.1 2.1,25.8 0.3,25.5 C2,26.3 4.3,25.2 4.3,25.2 C3.9,26.3 3.6,27.4 3.4,28.5 C5.3,24.2 7,22.7 7.6,22.2 C8.4,22.4 10.1,22.3 13.2,20.5 C16.7,18.5 22,15.2 23.5,13.1 C25.1,11 27.2,9.3 29.7,8.4 C29.7,5.4 29.6,2.6 29.6,0.2 M14.8,13.5 L13,13.9 L15.2,10.3 L17.7,10.4 L14.8,13.5" id="path658"></path>
                </g>
                <g id="g660" transform="translate(99.000000, 112.000000)" fill="#009CDE" fill-rule="nonzero">
                    <path d="M3.9,0.5 C3.6,0.6 2.7,1 2.1,1.2 C1.5,1.4 0.8,1.7 0.8,1.9 C0.8,1.9 1.4,32.7 1.4,33.3 C1.4,39.6 4.6,39.7 4.6,33.3 C4.6,32.9 5.3,1.42108547e-14 5.3,1.42108547e-14 C5.3,1.42108547e-14 4.4,0.3 3.9,0.5" id="path662"></path>
                </g>
                <g id="g664" transform="translate(98.000000, 67.000000)" fill="#009CDE" fill-rule="nonzero">
                    <path d="M1.5,35.3 C2.5,35 3.5,34.6 4.4,34.4 C5.1,34.2 5.7,34 6.4,33.8 C6.4,31.9 7,5.1 7.1,0.3 C5,0.8 2.9,1.4 0.9,2.1 C1,5.7 1.5,32.4 1.5,35.3" id="path666"></path>
                </g>
                <g id="g668" transform="translate(96.000000, 0.000000)" fill="#009CDE" fill-rule="nonzero">
                    <path d="M6.2,0 C-2.8,0 1,13.4 1.7,17.8 C1.7,18 2.4,48.1 2.6,55 C4,54.6 5.3,54.3 6.7,54 L9.4,53.3 C9.5,46.6 10.2,17.9 10.2,17.7 C10.8,13.1 15.5,0 6.2,0" id="path670"></path>
                </g>
            </g>
        </g>
    </g>
</svg>